<svg width="1155" height="531" viewBox="0 0 1155 531" fill="none" xmlns="http://www.w3.org/2000/svg">
<path d="M131.281 2.83199C130.993 1.67999 130.417 0.815998 129.553 0.527985C129.265 0.527985 128.977 0.527985 128.977 0.239988H128.401C127.537 0.239988 126.961 0.527985 126.385 1.10399C126.097 1.39199 125.809 1.67999 125.809 1.96798L125.521 2.256L70.5133 139.056L44.3053 124.944L69.9373 61.008C70.5133 59.568 69.6493 57.84 68.2093 57.264C66.7693 56.688 65.0413 57.264 64.4653 58.704L0.529251 217.968C0.241251 218.544 0.241251 219.12 0.529251 219.984L0.817251 220.56C1.10525 221.136 1.96925 221.712 2.54525 222H3.12125C3.69725 222 4.27325 222 4.56125 221.712L106.801 164.688L214.225 221.712C214.513 222 215.089 222 215.665 222H216.241C216.817 221.712 217.681 221.136 217.969 220.56L218.257 219.984C218.545 219.12 218.545 218.544 218.257 217.968L131.281 2.83199ZM172.753 121.2L106.513 158.064L75.4093 141.648L128.113 11.184L172.753 121.2ZM175.057 126.672L209.905 212.784L112.849 161.232L175.057 126.672ZM100.753 161.52L9.16925 212.496L42.2893 130.416L70.2253 145.104C70.2253 145.392 70.5133 145.68 70.8013 145.68L100.753 161.52ZM412.633 108.816C411.193 108.816 409.753 110.256 409.753 111.696V162.672C409.753 168.144 408.601 173.904 406.297 179.664C403.705 186.288 399.961 192.048 395.065 197.232C386.713 205.872 371.161 216.24 344.953 216.24H250.489L278.425 190.032C278.713 189.744 279.289 189.456 279.289 188.88L413.785 62.448C414.361 62.16 414.937 61.584 414.937 61.008C415.225 60.432 415.225 59.856 415.225 59.28C414.937 46.032 408.889 31.92 398.809 21.552C389.881 12.048 373.177 0.527985 344.665 0.527985H276.985C275.257 0.527985 274.105 1.96798 274.105 3.40798V186.288L246.169 212.496V3.40798C246.169 1.96798 244.729 0.527985 243.289 0.527985C241.561 0.527985 240.409 1.96798 240.409 3.40798V219.12C240.409 220.272 240.985 221.136 241.561 221.712C242.137 222 242.713 222 243.289 222H344.953C373.177 222 390.169 210.768 399.097 201.264C409.465 190.32 415.513 176.208 415.513 162.672V111.696C415.513 110.256 414.361 108.816 412.633 108.816ZM279.865 180.816V6.288H344.665C371.161 6.288 386.425 16.656 394.777 25.584C399.673 30.48 403.417 36.528 406.009 42.864C408.312 48.336 409.465 53.808 409.465 58.992L279.865 180.816ZM428.371 0.239988C426.643 0.239988 425.491 1.67999 425.491 3.11999C425.491 4.27199 426.067 5.13599 426.931 5.71199L459.763 38.544C460.339 39.408 461.203 39.984 462.355 39.984H493.459V219.12C493.459 220.272 494.035 221.136 495.187 221.712C495.475 222 495.763 222 496.339 222H497.203L498.355 221.136L532.051 187.44C532.627 186.864 533.203 186.288 533.203 185.136V37.104C533.203 35.376 531.763 34.224 530.323 34.224H499.219V5.99998H598.003C599.443 5.99998 600.883 4.848 600.883 3.11999C600.883 1.67999 599.443 0.239988 598.003 0.239988H428.371ZM463.507 34.224L435.283 5.99998H493.459V34.224H463.507ZM527.443 183.696L499.219 212.208V39.984H527.443V183.696ZM632.982 216.24L734.646 113.424C735.51 112.848 736.086 111.984 736.086 110.832C736.086 109.968 735.798 109.104 734.934 108.528L632.982 6.57599H775.254C776.982 6.57599 778.134 5.42399 778.134 3.696C778.134 2.256 776.982 0.815998 775.254 0.815998H626.07C624.342 0.815998 623.19 2.256 623.19 3.696V219.12L623.478 220.272C623.766 221.424 624.63 222 626.07 222H775.254C776.982 222 778.134 220.848 778.134 219.12C778.134 217.68 776.982 216.24 775.254 216.24H632.982ZM628.95 212.208V10.608L656.886 38.544V183.984L628.95 212.208ZM662.646 107.952V44.304L726.294 107.952H662.646ZM662.646 113.712H726.294L662.646 178.224V113.712ZM942.91 111.12L976.606 61.584C976.894 61.008 977.182 60.432 977.182 59.856C977.182 46.608 971.134 32.208 960.766 21.552C951.55 12.048 934.846 0.527985 906.622 0.527985H906.334C892.222 0.527985 880.99 3.40798 872.062 7.43998L870.622 5.42399C870.334 5.13599 869.758 4.55998 869.47 4.55998L868.318 4.27199C841.822 4.27199 825.982 14.928 817.63 23.856C807.838 33.936 802.078 47.472 802.078 59.856V162.672C802.078 175.344 807.838 188.592 817.63 198.672C825.982 207.6 841.822 218.256 868.318 218.256C869.182 218.256 870.046 217.968 870.622 217.104L870.91 216.816L872.062 215.088C880.99 219.12 892.222 222 906.334 222H906.91C935.134 222 951.838 210.768 961.054 201.264C971.134 190.32 977.47 175.92 977.47 162.672C977.47 161.808 977.182 161.232 976.318 160.656L942.91 111.12ZM906.334 6.288C932.83 6.288 948.382 16.656 956.734 25.296C961.342 30.48 965.374 36.528 967.966 42.864C969.982 48.336 971.134 53.808 971.422 58.992L939.166 106.224L875.23 12.336C883.294 8.88 893.662 6.288 906.334 6.288ZM821.662 194.64C811.582 183.984 807.838 171.312 807.838 162.672V59.856C807.838 51.216 811.582 38.544 821.662 27.888C829.15 20.112 843.262 10.32 866.878 10.032C860.542 13.776 855.934 17.808 852.19 21.552C841.822 32.208 835.774 46.608 835.774 59.856V162.672C835.774 175.92 841.822 190.32 852.19 201.264C855.934 205.008 860.542 209.04 866.878 212.496C843.262 212.208 829.15 202.704 821.662 194.64ZM841.534 59.856C841.534 54.384 842.686 48.624 844.99 42.864C847.582 36.528 851.614 30.48 856.51 25.296C859.678 21.84 864.286 18.096 870.046 14.928L935.998 111.12L870.046 207.6C864.286 204.432 859.678 200.688 856.51 197.232C851.614 192.048 847.582 186.288 844.99 179.664C842.686 173.904 841.534 168.144 841.534 162.672V59.856ZM956.734 197.232C948.382 205.872 933.118 216.24 906.91 216.24H906.622H906.334C893.662 216.24 883.294 213.648 875.23 210.192L939.454 116.304L971.71 163.536C971.422 168.72 970.27 174.192 968.254 179.664C965.374 186.288 961.63 192.048 956.734 197.232ZM1151.85 0.239988C1150.12 0.239988 1148.97 1.39199 1148.97 3.11999V107.952H1038.95V3.40798C1038.95 1.67999 1037.8 0.527985 1036.07 0.527985C1034.63 0.527985 1033.19 1.67999 1033.19 3.40798V107.952H1005.26V3.40798C1005.26 1.67999 1004.1 0.527985 1002.38 0.527985C1000.94 0.527985 999.496 1.67999 999.496 3.40798V219.12C999.496 219.984 999.784 220.56 1000.07 220.848C1000.65 221.712 1001.51 222 1002.38 222C1003.53 222 1004.39 221.424 1004.97 220.56L1112.1 113.712H1148.97V219.12C1148.97 220.848 1150.12 222 1151.85 222C1153.29 222 1154.73 220.848 1154.73 219.12V3.11999C1154.73 1.39199 1153.29 0.239988 1151.85 0.239988ZM1033.19 184.272L1005.26 212.208V113.712H1033.19V184.272ZM1038.95 178.512V113.712H1104.04L1038.95 178.512ZM35.7383 488.207C35.7383 488.78 35.5951 489.281 35.3086 489.711C35.0221 490.141 34.5208 490.499 33.8047 490.785C33.0885 491 32.1217 491.179 30.9043 491.322C29.7585 491.537 28.2904 491.645 26.5 491.645C24.7812 491.645 23.3132 491.537 22.0957 491.322C20.8783 491.179 19.9115 491 19.1953 490.785C18.4792 490.499 17.9779 490.141 17.6914 489.711C17.4049 489.281 17.2617 488.78 17.2617 488.207V354.789C17.2617 354.216 17.4049 353.715 17.6914 353.285C18.0495 352.855 18.5866 352.533 19.3027 352.318C20.0905 352.032 21.0573 351.817 22.2031 351.674C23.4206 351.459 24.8529 351.352 26.5 351.352C28.2904 351.352 29.7585 351.459 30.9043 351.674C32.1217 351.817 33.0885 352.032 33.8047 352.318C34.5208 352.533 35.0221 352.855 35.3086 353.285C35.5951 353.715 35.7383 354.216 35.7383 354.789V488.207ZM159.811 359.945C159.811 361.306 159.739 362.488 159.596 363.49C159.452 364.493 159.202 365.316 158.844 365.961C158.557 366.534 158.163 366.964 157.662 367.25C157.232 367.536 156.731 367.68 156.158 367.68H117.057V488.207C117.057 488.78 116.913 489.281 116.627 489.711C116.34 490.141 115.839 490.499 115.123 490.785C114.407 491 113.44 491.179 112.223 491.322C111.077 491.537 109.609 491.645 107.818 491.645C106.1 491.645 104.632 491.537 103.414 491.322C102.197 491.179 101.23 491 100.514 490.785C99.7975 490.499 99.2962 490.141 99.0098 489.711C98.7233 489.281 98.5801 488.78 98.5801 488.207V367.68H59.4785C58.9056 367.68 58.3685 367.536 57.8672 367.25C57.4375 366.964 57.0794 366.534 56.793 365.961C56.5065 365.316 56.2559 364.493 56.041 363.49C55.8978 362.488 55.8262 361.306 55.8262 359.945C55.8262 358.585 55.8978 357.403 56.041 356.4C56.2559 355.326 56.5065 354.467 56.793 353.822C57.0794 353.178 57.4375 352.712 57.8672 352.426C58.3685 352.139 58.9056 351.996 59.4785 351.996H156.158C156.731 351.996 157.232 352.139 157.662 352.426C158.163 352.712 158.557 353.178 158.844 353.822C159.202 354.467 159.452 355.326 159.596 356.4C159.739 357.403 159.811 358.585 159.811 359.945ZM322.555 471.342C322.555 472.488 322.519 473.49 322.447 474.35C322.376 475.209 322.232 475.961 322.018 476.605C321.874 477.25 321.66 477.823 321.373 478.324C321.087 478.826 320.585 479.434 319.869 480.15C319.153 480.867 317.649 481.977 315.357 483.48C313.066 484.913 310.201 486.345 306.764 487.777C303.398 489.138 299.495 490.284 295.055 491.215C290.686 492.217 285.888 492.719 280.66 492.719C271.637 492.719 263.473 491.215 256.168 488.207C248.935 485.199 242.74 480.759 237.584 474.887C232.499 469.014 228.561 461.781 225.768 453.188C223.046 444.522 221.686 434.568 221.686 423.324C221.686 411.794 223.154 401.518 226.09 392.494C229.098 383.471 233.287 375.844 238.658 369.613C244.029 363.311 250.439 358.513 257.887 355.219C265.406 351.924 273.714 350.277 282.809 350.277C286.819 350.277 290.722 350.671 294.518 351.459C298.313 352.175 301.822 353.106 305.045 354.252C308.268 355.398 311.132 356.723 313.639 358.227C316.145 359.73 317.864 360.984 318.795 361.986C319.798 362.917 320.442 363.633 320.729 364.135C321.015 364.636 321.23 365.245 321.373 365.961C321.588 366.605 321.731 367.393 321.803 368.324C321.946 369.255 322.018 370.365 322.018 371.654C322.018 373.087 321.946 374.304 321.803 375.307C321.66 376.309 321.445 377.169 321.158 377.885C320.872 378.529 320.514 379.031 320.084 379.389C319.726 379.675 319.26 379.818 318.688 379.818C317.685 379.818 316.288 379.138 314.498 377.777C312.708 376.345 310.38 374.805 307.516 373.158C304.723 371.439 301.285 369.9 297.203 368.539C293.193 367.107 288.359 366.391 282.701 366.391C276.542 366.391 270.921 367.644 265.836 370.15C260.823 372.585 256.526 376.202 252.945 381C249.365 385.798 246.572 391.671 244.566 398.617C242.633 405.492 241.666 413.37 241.666 422.25C241.666 431.059 242.597 438.865 244.459 445.668C246.393 452.4 249.114 458.057 252.623 462.641C256.204 467.152 260.572 470.59 265.729 472.953C270.885 475.245 276.721 476.391 283.238 476.391C288.753 476.391 293.551 475.71 297.633 474.35C301.786 472.989 305.296 471.485 308.16 469.838C311.096 468.119 313.495 466.579 315.357 465.219C317.219 463.858 318.688 463.178 319.762 463.178C320.263 463.178 320.693 463.285 321.051 463.5C321.409 463.715 321.695 464.145 321.91 464.789C322.125 465.362 322.268 466.186 322.34 467.26C322.483 468.334 322.555 469.695 322.555 471.342ZM434.918 438.9C434.918 446.778 433.88 454.047 431.803 460.707C429.726 467.296 426.611 472.989 422.457 477.787C418.375 482.585 413.219 486.345 406.988 489.066C400.829 491.716 393.668 493.041 385.504 493.041C377.555 493.041 370.608 491.859 364.664 489.496C358.792 487.133 353.886 483.695 349.947 479.184C346.008 474.672 343.072 469.193 341.139 462.748C339.205 456.303 338.238 448.998 338.238 440.834C338.238 432.956 339.241 425.723 341.246 419.135C343.323 412.475 346.402 406.745 350.484 401.947C354.638 397.149 359.794 393.425 365.953 390.775C372.112 388.126 379.309 386.801 387.545 386.801C395.494 386.801 402.405 387.982 408.277 390.346C414.221 392.709 419.163 396.146 423.102 400.658C427.04 405.17 429.977 410.648 431.91 417.094C433.915 423.539 434.918 430.808 434.918 438.9ZM416.227 440.082C416.227 434.854 415.725 429.913 414.723 425.258C413.792 420.603 412.216 416.521 409.996 413.012C407.776 409.503 404.768 406.745 400.973 404.74C397.177 402.663 392.451 401.625 386.793 401.625C381.565 401.625 377.053 402.556 373.258 404.418C369.534 406.28 366.454 408.93 364.02 412.367C361.585 415.733 359.758 419.743 358.541 424.398C357.395 429.053 356.822 434.138 356.822 439.652C356.822 444.952 357.288 449.929 358.219 454.584C359.221 459.239 360.833 463.321 363.053 466.83C365.344 470.268 368.388 473.025 372.184 475.102C375.979 477.107 380.706 478.109 386.363 478.109C391.52 478.109 395.995 477.178 399.791 475.316C403.587 473.454 406.702 470.84 409.137 467.475C411.572 464.109 413.362 460.098 414.508 455.443C415.654 450.788 416.227 445.668 416.227 440.082ZM544.273 488.314C544.273 488.887 544.13 489.389 543.844 489.818C543.557 490.176 543.092 490.499 542.447 490.785C541.803 491.072 540.908 491.286 539.762 491.43C538.616 491.573 537.184 491.645 535.465 491.645C533.674 491.645 532.206 491.573 531.061 491.43C529.915 491.286 529.02 491.072 528.375 490.785C527.73 490.499 527.265 490.176 526.979 489.818C526.692 489.389 526.549 488.887 526.549 488.314V431.703C526.549 426.189 526.119 421.749 525.26 418.383C524.4 415.017 523.147 412.117 521.5 409.682C519.853 407.247 517.704 405.385 515.055 404.096C512.477 402.807 509.469 402.162 506.031 402.162C501.591 402.162 497.151 403.738 492.711 406.889C488.271 410.04 483.616 414.659 478.746 420.746V488.314C478.746 488.887 478.603 489.389 478.316 489.818C478.03 490.176 477.564 490.499 476.92 490.785C476.275 491.072 475.38 491.286 474.234 491.43C473.089 491.573 471.62 491.645 469.83 491.645C468.111 491.645 466.679 491.573 465.533 491.43C464.387 491.286 463.456 491.072 462.74 490.785C462.096 490.499 461.63 490.176 461.344 489.818C461.129 489.389 461.021 488.887 461.021 488.314V391.635C461.021 391.062 461.129 390.596 461.344 390.238C461.559 389.809 461.988 389.451 462.633 389.164C463.277 388.806 464.101 388.591 465.104 388.52C466.106 388.376 467.431 388.305 469.078 388.305C470.654 388.305 471.943 388.376 472.945 388.52C474.02 388.591 474.843 388.806 475.416 389.164C475.989 389.451 476.383 389.809 476.598 390.238C476.884 390.596 477.027 391.062 477.027 391.635V404.418C482.47 398.331 487.877 393.891 493.248 391.098C498.691 388.233 504.169 386.801 509.684 386.801C516.129 386.801 521.536 387.911 525.904 390.131C530.344 392.279 533.925 395.18 536.646 398.832C539.368 402.484 541.301 406.781 542.447 411.723C543.665 416.592 544.273 422.465 544.273 429.34V488.314ZM637.301 461.996C637.301 466.938 636.37 471.342 634.508 475.209C632.717 479.076 630.139 482.335 626.773 484.984C623.408 487.634 619.397 489.639 614.742 491C610.087 492.361 604.967 493.041 599.381 493.041C595.943 493.041 592.649 492.755 589.498 492.182C586.419 491.68 583.626 491.036 581.119 490.248C578.684 489.389 576.607 488.529 574.889 487.67C573.17 486.739 571.917 485.915 571.129 485.199C570.341 484.483 569.768 483.48 569.41 482.191C569.052 480.902 568.873 479.148 568.873 476.928C568.873 475.567 568.945 474.421 569.088 473.49C569.231 472.559 569.41 471.807 569.625 471.234C569.84 470.661 570.126 470.268 570.484 470.053C570.914 469.766 571.38 469.623 571.881 469.623C572.669 469.623 573.814 470.124 575.318 471.127C576.894 472.058 578.792 473.096 581.012 474.242C583.303 475.388 585.989 476.462 589.068 477.465C592.148 478.396 595.693 478.861 599.703 478.861C602.711 478.861 605.432 478.539 607.867 477.895C610.302 477.25 612.415 476.319 614.205 475.102C615.995 473.812 617.356 472.201 618.287 470.268C619.29 468.334 619.791 466.042 619.791 463.393C619.791 460.671 619.075 458.38 617.643 456.518C616.282 454.656 614.456 453.008 612.164 451.576C609.872 450.144 607.294 448.891 604.43 447.816C601.565 446.671 598.593 445.489 595.514 444.271C592.506 443.054 589.534 441.693 586.598 440.189C583.733 438.614 581.155 436.716 578.863 434.496C576.572 432.276 574.71 429.626 573.277 426.547C571.917 423.467 571.236 419.779 571.236 415.482C571.236 411.687 571.952 408.07 573.385 404.633C574.889 401.124 577.109 398.08 580.045 395.502C582.981 392.852 586.633 390.74 591.002 389.164C595.442 387.589 600.598 386.801 606.471 386.801C609.049 386.801 611.627 387.016 614.205 387.445C616.783 387.875 619.111 388.412 621.188 389.057C623.264 389.701 625.019 390.417 626.451 391.205C627.955 391.921 629.065 392.566 629.781 393.139C630.569 393.712 631.07 394.213 631.285 394.643C631.572 395.072 631.751 395.574 631.822 396.146C631.965 396.648 632.073 397.292 632.145 398.08C632.288 398.868 632.359 399.835 632.359 400.98C632.359 402.198 632.288 403.272 632.145 404.203C632.073 405.062 631.894 405.779 631.607 406.352C631.393 406.924 631.106 407.354 630.748 407.641C630.39 407.855 629.996 407.963 629.566 407.963C628.922 407.963 627.991 407.569 626.773 406.781C625.556 405.993 623.98 405.17 622.047 404.311C620.113 403.38 617.822 402.52 615.172 401.732C612.594 400.945 609.622 400.551 606.256 400.551C603.248 400.551 600.598 400.909 598.307 401.625C596.015 402.27 594.117 403.236 592.613 404.525C591.181 405.743 590.071 407.211 589.283 408.93C588.567 410.648 588.209 412.51 588.209 414.516C588.209 417.309 588.925 419.672 590.357 421.605C591.79 423.467 593.652 425.115 595.943 426.547C598.235 427.979 600.849 429.268 603.785 430.414C606.721 431.56 609.693 432.742 612.701 433.959C615.781 435.176 618.788 436.537 621.725 438.041C624.732 439.545 627.382 441.371 629.674 443.52C631.965 445.668 633.792 448.246 635.152 451.254C636.585 454.262 637.301 457.842 637.301 461.996ZM745.582 488.314C745.582 488.887 745.439 489.389 745.152 489.818C744.938 490.176 744.508 490.499 743.863 490.785C743.219 491.072 742.359 491.286 741.285 491.43C740.283 491.573 739.029 491.645 737.525 491.645C735.878 491.645 734.518 491.573 733.443 491.43C732.441 491.286 731.617 491.072 730.973 490.785C730.4 490.499 730.006 490.176 729.791 489.818C729.576 489.389 729.469 488.887 729.469 488.314V475.531C723.954 481.618 718.512 486.059 713.141 488.852C707.77 491.645 702.327 493.041 696.812 493.041C690.367 493.041 684.924 491.967 680.484 489.818C676.116 487.67 672.571 484.77 669.85 481.117C667.128 477.393 665.159 473.096 663.941 468.227C662.796 463.285 662.223 457.305 662.223 450.287V391.635C662.223 391.062 662.33 390.596 662.545 390.238C662.831 389.809 663.333 389.451 664.049 389.164C664.765 388.806 665.696 388.591 666.842 388.52C667.988 388.376 669.42 388.305 671.139 388.305C672.857 388.305 674.29 388.376 675.436 388.52C676.581 388.591 677.477 388.806 678.121 389.164C678.837 389.451 679.339 389.809 679.625 390.238C679.911 390.596 680.055 391.062 680.055 391.635V447.924C680.055 453.581 680.449 458.129 681.236 461.566C682.096 464.932 683.349 467.833 684.996 470.268C686.715 472.631 688.863 474.493 691.441 475.854C694.02 477.143 697.027 477.787 700.465 477.787C704.905 477.787 709.309 476.212 713.678 473.061C718.118 469.91 722.809 465.29 727.75 459.203V391.635C727.75 391.062 727.857 390.596 728.072 390.238C728.359 389.809 728.86 389.451 729.576 389.164C730.292 388.806 731.188 388.591 732.262 388.52C733.408 388.376 734.876 388.305 736.666 388.305C738.385 388.305 739.817 388.376 740.963 388.52C742.109 388.591 743.004 388.806 743.648 389.164C744.293 389.451 744.758 389.809 745.045 390.238C745.403 390.596 745.582 391.062 745.582 391.635V488.314ZM796.07 488.314C796.07 488.887 795.927 489.389 795.641 489.818C795.354 490.176 794.889 490.499 794.244 490.785C793.6 491.072 792.704 491.286 791.559 491.43C790.413 491.573 788.945 491.645 787.154 491.645C785.436 491.645 784.003 491.573 782.857 491.43C781.712 491.286 780.781 491.072 780.064 490.785C779.42 490.499 778.954 490.176 778.668 489.818C778.453 489.389 778.346 488.887 778.346 488.314V344.799C778.346 344.226 778.453 343.725 778.668 343.295C778.954 342.865 779.42 342.507 780.064 342.221C780.781 341.934 781.712 341.719 782.857 341.576C784.003 341.433 785.436 341.361 787.154 341.361C788.945 341.361 790.413 341.433 791.559 341.576C792.704 341.719 793.6 341.934 794.244 342.221C794.889 342.507 795.354 342.865 795.641 343.295C795.927 343.725 796.07 344.226 796.07 344.799V488.314ZM912.945 388.842C915.094 388.842 916.562 389.343 917.35 390.346C918.137 391.277 918.531 392.673 918.531 394.535V488.314C918.531 488.887 918.388 489.389 918.102 489.818C917.815 490.176 917.314 490.499 916.598 490.785C915.953 491.072 915.058 491.286 913.912 491.43C912.766 491.573 911.37 491.645 909.723 491.645C907.932 491.645 906.464 491.573 905.318 491.43C904.173 491.286 903.242 491.072 902.525 490.785C901.881 490.499 901.415 490.176 901.129 489.818C900.842 489.389 900.699 488.887 900.699 488.314V403.559H850.748V457.484C850.748 464.145 851.715 469.193 853.648 472.631C855.654 475.997 859.199 477.68 864.283 477.68C865.93 477.68 867.398 477.536 868.688 477.25C869.977 476.892 871.122 476.534 872.125 476.176C873.128 475.818 873.987 475.495 874.703 475.209C875.419 474.851 876.064 474.672 876.637 474.672C876.995 474.672 877.317 474.779 877.604 474.994C877.962 475.137 878.212 475.46 878.355 475.961C878.57 476.462 878.749 477.143 878.893 478.002C879.036 478.861 879.107 479.936 879.107 481.225C879.107 483.301 878.964 484.949 878.678 486.166C878.391 487.312 877.962 488.207 877.389 488.852C876.816 489.424 875.956 489.962 874.811 490.463C873.665 490.964 872.34 491.358 870.836 491.645C869.404 492.003 867.864 492.289 866.217 492.504C864.57 492.719 862.923 492.826 861.275 492.826C856.262 492.826 851.965 492.182 848.385 490.893C844.804 489.532 841.868 487.527 839.576 484.877C837.285 482.156 835.602 478.754 834.527 474.672C833.525 470.518 833.023 465.648 833.023 460.062V403.559H819.488C818.414 403.559 817.555 402.986 816.91 401.84C816.266 400.694 815.943 398.832 815.943 396.254C815.943 394.893 816.015 393.747 816.158 392.816C816.373 391.885 816.624 391.133 816.91 390.561C817.197 389.916 817.555 389.486 817.984 389.271C818.486 388.985 819.023 388.842 819.596 388.842H833.023V365.854C833.023 365.352 833.131 364.887 833.346 364.457C833.632 364.027 834.098 363.669 834.742 363.383C835.458 363.025 836.389 362.774 837.535 362.631C838.681 362.488 840.113 362.416 841.832 362.416C843.622 362.416 845.09 362.488 846.236 362.631C847.382 362.774 848.277 363.025 848.922 363.383C849.566 363.669 850.032 364.027 850.318 364.457C850.605 364.887 850.748 365.352 850.748 365.854V388.842H912.945ZM920.572 358.979C920.572 363.132 919.785 365.961 918.209 367.465C916.633 368.969 913.733 369.721 909.508 369.721C905.354 369.721 902.49 369.005 900.914 367.572C899.41 366.068 898.658 363.275 898.658 359.193C898.658 355.04 899.446 352.211 901.021 350.707C902.597 349.203 905.497 348.451 909.723 348.451C913.876 348.451 916.705 349.203 918.209 350.707C919.785 352.139 920.572 354.896 920.572 358.979ZM1034.76 488.314C1034.76 488.887 1034.62 489.389 1034.33 489.818C1034.05 490.176 1033.58 490.499 1032.94 490.785C1032.29 491.072 1031.4 491.286 1030.25 491.43C1029.1 491.573 1027.67 491.645 1025.95 491.645C1024.16 491.645 1022.69 491.573 1021.55 491.43C1020.4 491.286 1019.51 491.072 1018.86 490.785C1018.22 490.499 1017.75 490.176 1017.47 489.818C1017.18 489.389 1017.04 488.887 1017.04 488.314V431.703C1017.04 426.189 1016.61 421.749 1015.75 418.383C1014.89 415.017 1013.64 412.117 1011.99 409.682C1010.34 407.247 1008.19 405.385 1005.54 404.096C1002.96 402.807 999.957 402.162 996.52 402.162C992.079 402.162 987.639 403.738 983.199 406.889C978.759 410.04 974.104 414.659 969.234 420.746V488.314C969.234 488.887 969.091 489.389 968.805 489.818C968.518 490.176 968.053 490.499 967.408 490.785C966.764 491.072 965.868 491.286 964.723 491.43C963.577 491.573 962.109 491.645 960.318 491.645C958.6 491.645 957.167 491.573 956.021 491.43C954.876 491.286 953.945 491.072 953.229 490.785C952.584 490.499 952.118 490.176 951.832 489.818C951.617 489.389 951.51 488.887 951.51 488.314V391.635C951.51 391.062 951.617 390.596 951.832 390.238C952.047 389.809 952.477 389.451 953.121 389.164C953.766 388.806 954.589 388.591 955.592 388.52C956.594 388.376 957.919 388.305 959.566 388.305C961.142 388.305 962.431 388.376 963.434 388.52C964.508 388.591 965.331 388.806 965.904 389.164C966.477 389.451 966.871 389.809 967.086 390.238C967.372 390.596 967.516 391.062 967.516 391.635V404.418C972.958 398.331 978.365 393.891 983.736 391.098C989.179 388.233 994.658 386.801 1000.17 386.801C1006.62 386.801 1012.02 387.911 1016.39 390.131C1020.83 392.279 1024.41 395.18 1027.13 398.832C1029.86 402.484 1031.79 406.781 1032.94 411.723C1034.15 416.592 1034.76 422.465 1034.76 429.34V488.314ZM1147.88 396.039C1147.88 398.546 1147.52 400.372 1146.8 401.518C1146.16 402.592 1145.3 403.129 1144.22 403.129H1130.37C1132.87 405.707 1134.63 408.572 1135.63 411.723C1136.63 414.802 1137.13 418.025 1137.13 421.391C1137.13 426.977 1136.24 431.918 1134.45 436.215C1132.66 440.512 1130.08 444.164 1126.71 447.172C1123.42 450.108 1119.48 452.364 1114.9 453.939C1110.32 455.515 1105.23 456.303 1099.64 456.303C1095.71 456.303 1091.95 455.801 1088.37 454.799C1084.86 453.725 1082.13 452.4 1080.2 450.824C1078.91 452.113 1077.84 453.581 1076.98 455.229C1076.19 456.876 1075.8 458.773 1075.8 460.922C1075.8 463.428 1076.94 465.505 1079.23 467.152C1081.6 468.799 1084.71 469.695 1088.58 469.838L1113.82 470.912C1118.62 471.055 1123.03 471.736 1127.04 472.953C1131.05 474.099 1134.52 475.782 1137.46 478.002C1140.39 480.15 1142.68 482.836 1144.33 486.059C1145.98 489.21 1146.8 492.898 1146.8 497.123C1146.8 501.563 1145.87 505.788 1144.01 509.799C1142.15 513.809 1139.28 517.318 1135.42 520.326C1131.62 523.406 1126.75 525.805 1120.81 527.523C1114.86 529.314 1107.84 530.209 1099.75 530.209C1091.95 530.209 1085.29 529.529 1079.77 528.168C1074.33 526.879 1069.85 525.089 1066.34 522.797C1062.83 520.505 1060.29 517.748 1058.72 514.525C1057.14 511.374 1056.35 507.937 1056.35 504.213C1056.35 501.85 1056.64 499.558 1057.21 497.338C1057.79 495.118 1058.65 493.005 1059.79 491C1061.01 488.995 1062.48 487.097 1064.2 485.307C1065.99 483.445 1068.03 481.618 1070.32 479.828C1066.81 478.038 1064.2 475.782 1062.48 473.061C1060.83 470.339 1060.01 467.403 1060.01 464.252C1060.01 459.883 1060.9 455.98 1062.69 452.543C1064.48 449.105 1066.7 446.026 1069.35 443.305C1067.13 440.655 1065.38 437.683 1064.09 434.389C1062.8 431.023 1062.15 426.977 1062.15 422.25C1062.15 416.736 1063.09 411.794 1064.95 407.426C1066.81 403.057 1069.39 399.369 1072.68 396.361C1075.98 393.354 1079.91 391.062 1084.5 389.486C1089.15 387.839 1094.2 387.016 1099.64 387.016C1102.58 387.016 1105.3 387.195 1107.81 387.553C1110.39 387.839 1112.79 388.269 1115.01 388.842H1144.22C1145.44 388.842 1146.34 389.451 1146.91 390.668C1147.55 391.814 1147.88 393.604 1147.88 396.039ZM1120.16 421.498C1120.16 414.91 1118.34 409.789 1114.68 406.137C1111.1 402.413 1105.98 400.551 1099.32 400.551C1095.88 400.551 1092.88 401.124 1090.3 402.27C1087.79 403.415 1085.68 404.991 1083.96 406.996C1082.31 409.001 1081.06 411.329 1080.2 413.979C1079.41 416.557 1079.02 419.278 1079.02 422.143C1079.02 428.516 1080.81 433.529 1084.39 437.182C1088.04 440.834 1093.13 442.66 1099.64 442.66C1103.15 442.66 1106.2 442.123 1108.78 441.049C1111.35 439.903 1113.47 438.363 1115.11 436.43C1116.83 434.424 1118.09 432.133 1118.87 429.555C1119.73 426.977 1120.16 424.291 1120.16 421.498ZM1129.08 498.09C1129.08 493.936 1127.36 490.749 1123.92 488.529C1120.56 486.238 1115.97 485.02 1110.17 484.877L1085.14 484.018C1082.85 485.808 1080.95 487.527 1079.45 489.174C1078.02 490.749 1076.87 492.253 1076.01 493.686C1075.15 495.189 1074.54 496.658 1074.19 498.09C1073.9 499.522 1073.76 500.99 1073.76 502.494C1073.76 507.149 1076.12 510.658 1080.85 513.021C1085.57 515.456 1092.16 516.674 1100.61 516.674C1105.98 516.674 1110.46 516.137 1114.04 515.062C1117.69 514.06 1120.63 512.699 1122.85 510.98C1125.07 509.262 1126.64 507.292 1127.57 505.072C1128.58 502.852 1129.08 500.525 1129.08 498.09Z" fill="black"/>
</svg>
